<?xml version="1.0" standalone="no"?>
<!DOCTYPE svg PUBLIC "-//W3C//DTD SVG 20010904//EN"
 "http://www.w3.org/TR/2001/REC-SVG-20010904/DTD/svg10.dtd">
<svg version="1.0" xmlns="http://www.w3.org/2000/svg"
 width="128.000000pt" height="128.000000pt" viewBox="0 0 128.000000 128.000000"
 preserveAspectRatio="xMidYMid meet">
<metadata>
Created by potrace 1.14, written by Peter Selinger 2001-2017
</metadata>
<g transform="translate(0.000000,128.000000) scale(0.100000,-0.100000)"
fill="#000000" stroke="none">
<path d="M0 640 l0 -640 640 0 640 0 0 640 0 640 -640 0 -640 0 0 -640z m830
399 l45 -25 0 -74 c0 -70 1 -74 26 -84 20 -8 -27 -11 -195 -11 -121 0 -239 -2
-260 -5 -37 -4 -40 -3 -50 27 -15 42 -21 47 -46 33 -29 -16 -34 -8 -17 27 28
51 84 95 154 120 59 21 82 23 183 20 101 -3 121 -6 160 -28z m-513 -191 c-3
-8 -6 -5 -6 6 -1 11 2 17 5 13 3 -3 4 -12 1 -19z m630 -10 c-3 -8 -6 -5 -6 6
-1 11 2 17 5 13 3 -3 4 -12 1 -19z m-264 -45 c-13 -2 -33 -2 -45 0 -13 2 -3 4
22 4 25 0 35 -2 23 -4z m-63 -41 c0 -22 -172 -132 -207 -132 -27 0 -56 49 -51
88 l3 27 20 -32 c10 -18 24 -33 30 -33 5 1 51 21 100 45 94 47 105 50 105 37z
m-310 -12 c5 0 16 -7 25 -16 15 -15 15 -18 -1 -35 -25 -28 -31 -105 -9 -129
24 -26 29 -25 42 9 6 16 17 29 24 28 8 0 37 10 64 22 28 13 69 32 92 42 24 11
58 35 78 54 48 48 74 46 143 -14 31 -27 72 -56 90 -65 17 -9 32 -19 32 -22 0
-3 -25 8 -56 26 -69 39 -96 38 -64 -3 12 -15 24 -26 27 -23 6 5 112 -33 131
-47 10 -8 10 -12 1 -18 -10 -6 -10 -13 -1 -34 12 -27 12 -27 -19 4 -17 17 -37
31 -44 31 -7 0 -20 6 -27 13 -78 73 -100 87 -134 87 -42 0 -67 -12 -116 -56
-21 -19 -53 -40 -71 -48 -30 -12 -82 -64 -74 -73 7 -6 132 39 173 63 55 32
102 31 158 -5 25 -15 66 -34 91 -41 47 -13 88 -44 43 -32 -21 5 -21 4 -8 -10
9 -8 27 -19 40 -23 14 -4 35 -14 48 -21 12 -8 26 -13 30 -10 4 2 7 -7 7 -20 0
-18 -7 -25 -27 -30 -16 -3 -32 -12 -36 -20 -7 -12 -14 -13 -37 -4 -16 6 -43
10 -60 10 -45 -3 -49 -1 -36 14 9 11 8 21 -7 47 -26 47 -48 58 -65 35 -9 -13
-21 -17 -36 -13 -28 7 -91 -11 -97 -28 -3 -7 -23 -25 -45 -40 -30 -19 -48 -25
-69 -20 -36 8 -96 -17 -105 -44 -8 -25 -18 -26 -52 -4 -14 10 -33 18 -41 19
-19 3 -32 23 -32 52 0 12 -6 22 -13 22 -7 0 -23 9 -35 20 -26 24 -29 25 -35 2
-3 -9 -5 4 -6 30 -1 42 4 53 34 87 19 21 35 44 35 50 0 7 4 9 10 6 5 -3 12 6
15 20 3 14 7 35 10 48 2 12 1 28 -4 35 -6 10 -12 5 -21 -18 -20 -49 -34 -49
-28 1 8 65 25 102 44 95 9 -3 19 -6 24 -6z m563 -40 c4 -4 -8 -6 -28 -5 -34 1
-69 30 -58 48 4 6 62 -22 86 -43z m100 -245 c-3 -9 -8 -14 -10 -11 -3 3 -2 9
2 15 9 16 15 13 8 -4z m-319 -117 c-43 -69 -77 -107 -98 -108 -6 0 7 15 27 34
20 18 37 42 37 53 0 23 8 33 27 33 9 0 11 -5 7 -12z"/>
<path d="M262 508 c-16 -16 -15 -28 2 -28 7 0 30 -18 50 -40 31 -35 39 -39 56
-30 24 13 17 32 -31 79 -32 33 -57 39 -77 19z"/>
</g>
</svg>
